# xmcd
#
# Track frame offsets:
#	150
#	17058
#	32115
#	46196
#	56574
#	68159
#	85894
#	110667
#	124157
#	131684
#	146994
#	162297
#	182045
#	195065
#
# Disc length: 2677 seconds
#
# Revision: 1
# Processed by: cddbd v1.5.2PL0 Copyright (c) Steve Scherf et al.
# Submitted via: audiograbber 1.83.01
#
DISCID=c20a730e
DTITLE=Rolf Zacher - danebenleben
DYEAR=2011
DGENRE=Rock
TTITLE0=Scheissegal
TTITLE1=Danebenleben
TTITLE2=Die fetten Jahre
TTITLE3=Dein Regen
TTITLE4=I`m on fire
TTITLE5=Guten Morgen
TTITLE6=In jeder gottverdammten Stunde
TTITLE7=Lascia chìo pianga
TTITLE8=Betrüge mich
TTITLE9=Rockerbraut
TTITLE10=Gibt so Dinge
TTITLE11=Auf uns hocken die Geier
TTITLE12=Love of my life
TTITLE13=Das Geräusch
EXTD=
EXTT0=
EXTT1=
EXTT2=
EXTT3=
EXTT4=
EXTT5=
EXTT6=
EXTT7=
EXTT8=
EXTT9=
EXTT10=
EXTT11=
EXTT12=
EXTT13=
PLAYORDER=
